#N canvas 64 159 564 474 10;
#X declare -lib pdgst -lib Gem;
#X text 30 48 [pix_pix2gst] bridge between Gem-Pixes and GStreamer
;
#X obj 34 442 declare -lib pdgst -lib Gem;
#X text 191 301 makes a pix available as a GStreamer source;
#X obj 238 322 cnv 15 200 30 empty empty empty 20 12 0 14 -4034 -66577
0;
#X obj 246 327 pix_pix2gst yuv 320 240 20;
#X obj 69 173 cnv 15 300 120 empty empty empty 20 12 0 14 -233017 -66577
0;
#X obj 246 195 gemhead 60;
#X obj 246 221 t a b;
#X obj 246 243 pix_snap 320 240;
#X obj 79 184 gemhead 50;
#X obj 79 206 t a b;
#X obj 79 228 rotateXYZ;
#X obj 79 250 teapot;
#X obj 191 202 i;
#X obj 191 224 + 1;
#X obj 191 246 % 360;
#X obj 191 268 t f f;
#X obj 246 265 pix_yuv;
#X obj 67 90 cnv 15 100 60 empty empty 1:startGem 10 12 0 14 -233017
-66577 0;
#N canvas 1 51 671 312 gemwin 0;
#X obj 168 103 tgl 15 0 \$0-gemwin \$0-gemwin empty 17 7 0 10 -262144
-1 -1 0 1;
#X obj 248 100 r \$0-gemwin;
#X obj 248 122 select 1 0;
#X obj 248 166 gemwin;
#X obj 404 88 inlet;
#X msg 467 97 reset \, dimen 320 240;
#X obj 467 75 loadbang;
#X msg 248 144 create \, 1;
#X msg 310 166 0 \, destroy;
#X connect 1 0 2 0;
#X connect 2 0 7 0;
#X connect 2 1 8 0;
#X connect 4 0 3 0;
#X connect 5 0 3 0;
#X connect 6 0 5 0;
#X connect 7 0 3 0;
#X connect 8 0 3 0;
#X coords 0 -1 1 1 85 25 1 100 100;
#X restore 76 119 pd gemwin;
#X obj 267 90 cnv 15 100 60 empty empty 2:startGSt 10 12 0 14 -203904
-66577 0;
#X obj 288 129 pdgst;
#X obj 288 110 tgl 15 0 empty empty empty 17 7 0 10 -262144 -1 -1 0
1;
#X obj 327 360 cnv 15 150 60 empty empty empty 10 12 0 14 -203904 -66577
0;
#X obj 335 372 ffmpegcolorspace;
#X obj 335 394 aasink;
#X text 231 444 (c) 2013 IOhannes m zmölnig;
#X text 45 357 arguments: <colorspace>;
#X text 123 374 <width>;
#X text 124 391 <height>;
#X text 122 409 [<framerate>];
#X connect 4 1 24 0;
#X connect 6 0 7 0;
#X connect 7 0 8 0;
#X connect 7 1 8 0;
#X connect 8 0 17 0;
#X connect 9 0 10 0;
#X connect 10 0 11 0;
#X connect 10 1 13 0;
#X connect 11 0 12 0;
#X connect 13 0 14 0;
#X connect 14 0 15 0;
#X connect 15 0 16 0;
#X connect 16 0 11 1;
#X connect 16 0 11 2;
#X connect 16 0 11 3;
#X connect 16 1 13 1;
#X connect 17 0 4 0;
#X connect 22 0 21 0;
#X connect 24 0 25 0;
