#N canvas 4 121 621 643 10;
#X obj 38 75 pdgst;
#X obj 38 55 tgl 15 0 empty empty empty 17 7 0 10 -262144 -1 -1 0 1
;
#X obj 151 223 dvdemux;
#X obj 151 153 dv1394src;
#X obj 151 293 dvdec;
#X obj 231 178 infoprint dv1394src;
#X obj 151 363 ffmpegcolorspace;
#X obj 151 533 xvimagesink @sync 0;
#X obj 231 248 infoprint dvdemux;
#X obj 231 318 infoprint dvdec;
#X obj 231 555 infoprint glimagesink;
#X obj 231 488 infoprint ffmpegcolorspace;
#X obj 230 424 infoprint timeoverlay;
#X text 69 54 <-- switch ON to start;
#X obj 151 396 timeoverlay;
#X text 137 103 grab a DV stream \, extract the video-part \, add a
timecode overlay and display via xv;
#X connect 1 0 0 0;
#X connect 2 0 4 0;
#X connect 2 1 8 0;
#X connect 3 0 2 0;
#X connect 3 1 5 0;
#X connect 4 0 6 0;
#X connect 4 1 9 0;
#X connect 6 0 14 0;
#X connect 7 0 10 0;
#X connect 14 0 7 0;
#X connect 14 1 12 0;
