#N canvas 114 121 897 643 10;
#X obj 38 75 pdgst;
#X obj 38 57 tgl 15 0 empty empty empty 17 7 0 10 -262144 -1 -1 0 1
;
#X obj 181 183 dvdemux;
#X obj 181 113 dv1394src;
#X obj 181 253 dvdec;
#X obj 231 138 infoprint dv1394src;
#X obj 181 353 ffmpegcolorspace;
#X obj 181 453 xvimagesink @sync 0;
#X obj 231 208 infoprint dvdemux;
#X obj 231 278 infoprint dvdec;
#X obj 231 475 infoprint glimagesink;
#X obj 230 404 infoprint videoflip;
#X obj 181 376 videoflip @method 0;
#X obj 553 363 audioconvert;
#X obj 633 385 infoprint audioconvert;
#X obj 553 419 audioresample;
#X obj 634 441 infoprint audioresample;
#X obj 634 501 infoprint jacksink;
#X obj 553 480 jackaudiosink @sync 0;
#X obj 181 322 t a;
#X text 69 54 <-- switch ON to start;
#X text 303 37 grab a DV stream \, display the video via xvimagesink
and output the audio via jack;
#X connect 1 0 0 0;
#X connect 2 0 4 0;
#X connect 2 1 8 0;
#X connect 3 0 2 0;
#X connect 3 1 5 0;
#X connect 4 0 19 0;
#X connect 4 1 9 0;
#X connect 6 0 12 0;
#X connect 7 1 10 0;
#X connect 12 0 7 0;
#X connect 12 1 11 0;
#X connect 13 0 15 0;
#X connect 13 1 14 0;
#X connect 15 0 18 0;
#X connect 15 1 16 0;
#X connect 18 1 17 0;
#X connect 19 0 6 0;
#X connect 19 0 13 0;
