#N canvas 0 168 621 643 10;
#X obj 38 75 pdgst;
#X msg 43 45 bang;
#X msg 131 38 start;
#X msg 128 72 stop;
#X obj 86 97 tgl 15 0 empty empty empty 17 7 0 10 -262144 -1 -1 1 1
;
#X msg 48 183 __gst connect;
#X obj 151 333 dvdemux;
#X obj 151 263 dv1394src;
#X obj 151 403 dvdec;
#X obj 49 211 t a a a a;
#X obj 151 288 infoprint dv1394src;
#X obj 151 358 infoprint dvdemux;
#X obj 151 428 infoprint dvdec;
#X obj 151 555 infoprint glimagesink;
#X obj 151 463 ffmpegcolorspace;
#X obj 151 488 infoprint ffmpegcolorspace;
#X msg 358 386 sync 0;
#X msg 369 540 sync;
#X floatatom 370 453 5 0 0 0 - - -;
#X floatatom 442 523 5 0 0 0 - - -;
#X msg 450 548 screen-height \$1;
#X msg 398 585 screen-height;
#X msg 362 505 screen-width;
#X msg 373 480 anti-aliasing \$1;
#X obj 420 452 tgl 15 0 empty empty empty 17 7 0 10 -262144 -1 -1 0
1;
#X obj 153 532 cacasink @sync 0;
#X connect 1 0 0 0;
#X connect 2 0 0 0;
#X connect 3 0 0 0;
#X connect 4 0 0 0;
#X connect 5 0 9 0;
#X connect 6 0 11 0;
#X connect 7 0 10 0;
#X connect 8 0 12 0;
#X connect 9 0 25 0;
#X connect 9 1 8 0;
#X connect 9 2 6 0;
#X connect 9 3 7 0;
#X connect 10 0 6 0;
#X connect 11 0 8 0;
#X connect 12 0 14 0;
#X connect 14 0 15 0;
#X connect 15 0 25 0;
#X connect 16 0 25 0;
#X connect 17 0 25 0;
#X connect 18 0 23 0;
#X connect 19 0 20 0;
#X connect 20 0 25 0;
#X connect 21 0 25 0;
#X connect 22 0 25 0;
#X connect 23 0 25 0;
#X connect 24 0 23 0;
#X connect 25 0 13 0;
