#N canvas 1381 0 795 643 10;
#X obj 38 75 pdgst;
#X msg 43 45 bang;
#X msg 131 38 start;
#X msg 128 72 stop;
#X obj 86 97 tgl 15 0 empty empty empty 17 7 0 10 -262144 -1 -1 0 1
;
#X msg 48 183 __gst connect;
#X obj 151 333 dvdemux;
#X obj 151 263 dv1394src;
#X obj 49 211 t a a a a;
#X obj 151 288 infoprint dv1394src;
#X obj 553 233 audioconvert;
#X obj 553 255 infoprint audioconvert;
#X obj 554 289 audioresample;
#X obj 554 311 infoprint audioresample;
#X obj 551 350 jackaudiosink;
#X obj 550 381 infoprint jacksink;
#X msg 604 424 sync \$1;
#X obj 670 429 tgl 15 0 empty empty empty 17 7 0 10 -262144 -1 -1 0
1;
#X connect 1 0 0 0;
#X connect 2 0 0 0;
#X connect 3 0 0 0;
#X connect 4 0 0 0;
#X connect 5 0 8 0;
#X connect 6 0 10 0;
#X connect 7 0 9 0;
#X connect 8 2 6 0;
#X connect 8 3 7 0;
#X connect 9 0 6 0;
#X connect 10 0 11 0;
#X connect 11 0 12 0;
#X connect 12 0 13 0;
#X connect 13 0 14 0;
#X connect 14 0 15 0;
#X connect 16 0 14 0;
#X connect 17 0 16 0;
