#N canvas 0 168 621 643 10;
#X obj 38 75 pdgst;
#X msg 43 45 bang;
#X msg 131 38 start;
#X msg 128 72 stop;
#X obj 86 97 tgl 15 0 empty empty empty 17 7 0 10 -262144 -1 -1 1 1
;
#X obj 151 223 dvdemux;
#X obj 151 153 dv1394src;
#X obj 151 293 dvdec;
#X obj 151 178 infoprint dv1394src;
#X obj 151 353 ffmpegcolorspace;
#X msg 358 386 sync 0;
#X msg 369 540 sync;
#X floatatom 370 453 5 0 0 0 - - -;
#X floatatom 442 523 5 0 0 0 - - -;
#X msg 450 548 screen-height \$1;
#X msg 398 585 screen-height;
#X msg 362 505 screen-width;
#X msg 373 480 anti-aliasing \$1;
#X obj 420 452 tgl 15 0 empty empty empty 17 7 0 10 -262144 -1 -1 0
1;
#X msg 118 114 save /tmp/pdgst.xml;
#X obj 152 533 xvimagesink @sync 0;
#X obj 151 248 infoprint dvdemux;
#X obj 151 318 infoprint dvdec;
#X obj 151 555 infoprint glimagesink;
#X obj 151 488 infoprint ffmpegcolorspace;
#X obj 314 138 tgl 15 0 empty empty empty 17 7 0 10 -262144 -1 -1 0
1;
#X obj 150 424 infoprint videoflip;
#X msg 341 340 method \$1;
#X floatatom 351 295 5 0 0 0 - - -;
#X obj 365 196 metro 50;
#X obj 369 232 random 8;
#X obj 377 161 tgl 15 0 empty empty empty 17 7 0 10 -262144 -1 -1 0
1;
#X obj 392 94 metro 2000;
#X obj 398 61 tgl 15 0 empty empty empty 17 7 0 10 -262144 -1 -1 0
1;
#X symbolatom 423 316 0 0 0 0 - - -;
#X msg 61 552 colorkey \$1;
#X floatatom 80 523 5 0 0 0 - - -;
#X obj 521 243 timeoverlay;
#X obj 154 396 timeoverlay @method 0;
#X connect 1 0 0 0;
#X connect 2 0 0 0;
#X connect 3 0 0 0;
#X connect 4 0 0 0;
#X connect 5 0 21 0;
#X connect 6 0 8 0;
#X connect 7 0 22 0;
#X connect 8 0 5 0;
#X connect 9 0 38 0;
#X connect 10 0 20 0;
#X connect 11 0 20 0;
#X connect 12 0 17 0;
#X connect 13 0 14 0;
#X connect 14 0 20 0;
#X connect 15 0 20 0;
#X connect 16 0 20 0;
#X connect 17 0 20 0;
#X connect 18 0 17 0;
#X connect 19 0 0 0;
#X connect 20 0 23 0;
#X connect 21 0 7 0;
#X connect 22 0 9 0;
#X connect 24 0 20 0;
#X connect 25 0 8 1;
#X connect 25 0 21 1;
#X connect 25 0 22 1;
#X connect 25 0 24 1;
#X connect 25 0 23 1;
#X connect 26 0 24 0;
#X connect 27 0 38 0;
#X connect 28 0 27 0;
#X connect 29 0 30 0;
#X connect 30 0 28 0;
#X connect 31 0 29 0;
#X connect 32 0 4 0;
#X connect 33 0 32 0;
#X connect 34 0 27 0;
#X connect 35 0 20 0;
#X connect 36 0 35 0;
#X connect 38 0 26 0;
