#N canvas 588 142 774 457 10;
#X obj 21 84 pdgst;
#X obj 21 44 t f f;
#X obj 328 156 infoprint src;
#X obj 269 286 infoprint adc~;
#X obj 340 375 env~;
#X floatatom 340 404 5 0 0 0 - - -;
#X obj 291 377 env~;
#X floatatom 291 406 5 0 0 0 - - -;
#X obj 58 67 tgl 15 0 empty empty empty 17 7 0 10 -262144 -1 -1 0 1
;
#X msg 58 86 \; pd dsp \$1;
#X obj 247 254 pdgst_adc~;
#X obj 21 22 tgl 15 0 empty empty empty 17 7 0 10 -262144 -1 -1 0 1
;
#X obj 247 126 jackaudiosrc;
#X obj 21 64 tgl 15 0 empty empty empty 17 7 0 10 -262144 -1 -1 0 1
;
#X text 59 24 <-- switch ON to start;
#X text 242 48 captures audio from jack and makes it available within
Pd;
#X connect 1 0 13 0;
#X connect 1 1 8 0;
#X connect 4 0 5 0;
#X connect 6 0 7 0;
#X connect 8 0 9 0;
#X connect 10 1 3 0;
#X connect 10 2 6 0;
#X connect 10 3 4 0;
#X connect 11 0 1 0;
#X connect 12 0 10 0;
#X connect 12 1 2 0;
#X connect 13 0 0 0;
