#N canvas 154 363 977 346 10;
#X msg 60 165 \; pd dsp 1;
#X obj 66 88 pdgst;
#X obj 69 66 tgl 15 0 empty empty empty 17 7 0 10 -262144 -1 -1 0 1
;
#X obj 203 209 infoprint dac~;
#X obj 203 273 infoprint sink;
#X obj 203 248 jackaudiosink;
#X obj 398 55 adc~;
#X obj 400 118 env~;
#X floatatom 400 140 5 0 0 0 - - -;
#X obj 441 122 env~;
#X floatatom 441 144 5 0 0 0 - - -;
#X obj 579 131 table scope 1024;
#X obj 552 228 tabwrite~ scope;
#X msg 580 185 bang;
#X msg 765 185 resize \$1;
#X obj 765 207 s scope;
#X floatatom 762 154 5 0 0 0 - - -;
#X obj 203 183 audiotestsrc;
#X connect 2 0 1 0;
#X connect 3 0 5 0;
#X connect 5 0 4 0;
#X connect 6 0 7 0;
#X connect 6 0 12 0;
#X connect 6 1 9 0;
#X connect 7 0 8 0;
#X connect 9 0 10 0;
#X connect 13 0 12 0;
#X connect 14 0 15 0;
#X connect 16 0 14 0;
#X connect 17 0 3 0;
