#N canvas 155 359 977 346 10;
#X obj 56 88 pdgst;
#X obj 56 66 tgl 15 0 empty empty empty 17 7 0 10 -262144 -1 -1 1 1
;
#X obj 293 208 infoprint dac~;
#X obj 293 248 infoprint sink;
#X obj 203 248 jackaudiosink;
#X obj 552 95 adc~;
#X obj 564 138 env~;
#X floatatom 564 160 5 0 0 0 - - -;
#X obj 605 138 env~;
#X floatatom 605 160 5 0 0 0 - - -;
#X msg 560 205 bang;
#X msg 765 185 resize \$1;
#X floatatom 765 164 5 0 0 0 - - -;
#X obj 203 208 audiotestsrc;
#X obj 765 207 s \$0-scope;
#X obj 551 227 tabwrite~ \$0-scope;
#X obj 551 255 table \$0-scope 1024;
#X msg 95 89 \; pd dsp \$1;
#X obj 56 27 tgl 15 0 empty empty empty 17 7 0 10 -262144 -1 -1 1 1
;
#X obj 56 47 t f f;
#X text 99 27 <-- turn ON to start;
#X text 300 23 generates an audio test signal \, ans outputs it via
jack;
#X text 287 40 if use jack to feed the output of "pdgst" back to "pd"
\, you should see the signal in the [adc~];
#X connect 1 0 0 0;
#X connect 4 1 3 0;
#X connect 5 0 6 0;
#X connect 5 0 15 0;
#X connect 5 1 8 0;
#X connect 6 0 7 0;
#X connect 8 0 9 0;
#X connect 10 0 15 0;
#X connect 11 0 14 0;
#X connect 12 0 11 0;
#X connect 13 0 4 0;
#X connect 13 1 2 0;
#X connect 18 0 19 0;
#X connect 19 0 1 0;
#X connect 19 1 17 0;
