#N canvas 374 346 710 375 10;
#X obj 279 102 videotestsrc;
#X obj 384 96 infoprint source;
#X obj 279 163 xvimagesink;
#X obj 384 156 infoprint sink;
#X obj 583 126 infoprint caps;
#X obj 273 284 video/x-raw-yuv width=120;
#X text 131 268 unfortunately \, the shortcut doesn't work (yet);
#X obj 50 58 tgl 15 0 empty empty empty 17 7 0 10 -262144 -1 -1 1 1
;
#X obj 50 78 pdgst;
#X obj 279 131 capsfilter video/x-raw-yuv \, width=120 \, height=240
;
#X msg 279 71 pattern snow;
#X connect 0 0 9 0;
#X connect 0 1 1 0;
#X connect 2 1 3 0;
#X connect 7 0 8 0;
#X connect 9 0 2 0;
#X connect 9 1 4 0;
#X connect 10 0 0 0;
