#N canvas 499 67 774 558 10;
#X obj 21 98 pdgst;
#X obj 286 517 infoprint sink;
#X msg 65 75 save /tmp/pd.gst;
#X obj 279 331 infoprint dac~;
#X obj 199 212 osc~ 440;
#X msg 348 168 caps;
#X msg 347 197 typefind 1;
#X msg 88 399 slave-method;
#X obj 21 74 t f f;
#X msg 345 224 max-bytes;
#X msg 85 461 async \$1;
#X obj 91 442 tgl 15 0 empty empty empty 17 7 0 10 -262144 -1 -1 0
1;
#X obj 198 365 audioresample;
#X obj 286 390 infoprint resample;
#X floatatom 199 190 5 0 0 0 - - -;
#X msg 349 274 is-live;
#X obj 329 314 t a;
#X msg 346 248 is-live 1;
#X obj 258 231 dbtorms;
#X obj 268 94 vsl 15 128 0 127 0 0 empty empty empty 0 -9 0 10 -262144
-1 -1 0 1;
#X obj 21 53 tgl 15 0 empty empty empty 17 7 0 10 -262144 -1 -1 0 1
;
#X obj 198 263 pdgst_dac~ 2;
#X obj 198 487 jackaudiosink;
#X msg 68 98 \; pd dsp \$1;
#X obj 199 235 *~ 0;
#X text 38 52 <-- turn ON to start;
#X text 253 33 generate a sound in Pd \, insert it into the pipeline
and output it (possibly resampling it) via jack;
#X connect 2 0 0 0;
#X connect 4 0 24 0;
#X connect 5 0 16 0;
#X connect 6 0 16 0;
#X connect 7 0 22 0;
#X connect 8 0 0 0;
#X connect 8 1 23 0;
#X connect 9 0 16 0;
#X connect 10 0 22 0;
#X connect 11 0 10 0;
#X connect 12 0 22 0;
#X connect 12 1 13 0;
#X connect 14 0 4 0;
#X connect 15 0 16 0;
#X connect 16 0 21 0;
#X connect 17 0 16 0;
#X connect 18 0 24 1;
#X connect 19 0 18 0;
#X connect 20 0 8 0;
#X connect 21 0 12 0;
#X connect 21 1 3 0;
#X connect 22 1 1 0;
#X connect 24 0 21 0;
