#N canvas 497 75 774 558 10;
#X obj 66 88 pdgst;
#X obj 286 517 infoprint sink;
#X msg 123 55 save /tmp/pd.gst;
#X obj 279 271 infoprint dac~;
#X obj 199 132 osc~ 440;
#X msg 348 88 caps;
#X msg 347 117 typefind 1;
#X msg 88 399 slave-method;
#X obj 21 74 t f f;
#X msg 345 144 max-bytes;
#X msg 85 461 async \$1;
#X obj 91 442 tgl 15 0 empty empty empty 17 7 0 10 -262144 -1 -1 0
1;
#X obj 198 305 audioresample;
#X obj 286 330 infoprint resample;
#X obj 199 155 *~ 0.1;
#X floatatom 199 110 5 0 0 0 - - -;
#X msg 349 194 is-live;
#X obj 198 364 audioconvert;
#X obj 286 389 infoprint convert;
#X obj 329 234 t a;
#X msg 346 168 is-live 1;
#X obj 258 151 dbtorms;
#X obj 268 14 vsl 15 128 0 127 0 0 empty empty empty 0 -9 0 10 -262144
-1 -1 0 1;
#X obj 21 53 tgl 15 0 empty empty empty 17 7 0 10 -262144 -1 -1 1 1
;
#X obj 198 183 pdgst_dac~ 2;
#X obj 198 487 jackaudiosink;
#X msg 53 165 \; pd dsp \$1;
#X connect 2 0 0 0;
#X connect 4 0 14 0;
#X connect 5 0 19 0;
#X connect 6 0 19 0;
#X connect 7 0 25 0;
#X connect 8 0 0 0;
#X connect 8 1 26 0;
#X connect 9 0 19 0;
#X connect 10 0 25 0;
#X connect 11 0 10 0;
#X connect 12 0 17 0;
#X connect 12 1 13 0;
#X connect 14 0 24 0;
#X connect 15 0 4 0;
#X connect 16 0 19 0;
#X connect 17 0 25 0;
#X connect 17 1 18 0;
#X connect 19 0 24 0;
#X connect 20 0 19 0;
#X connect 21 0 14 1;
#X connect 22 0 21 0;
#X connect 23 0 8 0;
#X connect 24 0 12 0;
#X connect 24 1 3 0;
#X connect 25 1 1 0;
