#N canvas 497 75 774 558 10;
#X msg 60 165 \; pd dsp 1;
#X obj 66 88 pdgst;
#X obj 69 66 tgl 15 0 empty empty empty 17 7 0 10 -262144 -1 -1 0 1
;
#X obj 164 517 infoprint sink;
#X msg 123 55 save /tmp/pd.gst;
#X obj 203 209 infoprint dac~;
#X obj 207 132 osc~ 440;
#X msg 371 89 caps;
#X msg 351 117 typefind 1;
#X msg 88 309 slave-method;
#X msg 26 40 1;
#X obj 21 74 t f f;
#X msg 350 168 is-live 1;
#X msg 454 231 max-bytes;
#X obj 540 308 tgl 15 0 empty empty empty 17 7 0 10 -262144 -1 -1 0
1;
#X obj 163 487 jackaudiosink;
#X obj 557 269 loadbang;
#X msg 560 291 0;
#X msg 95 241 async \$1;
#X obj 101 222 tgl 15 0 empty empty empty 17 7 0 10 -262144 -1 -1 0
1;
#X obj 198 365 audioresample;
#X obj 204 415 infoprint resample;
#X obj 235 155 *~ 0.1;
#X floatatom 223 100 5 0 0 0 - - -;
#X obj 202 183 pdgst_dac~ 4;
#X connect 2 0 1 0;
#X connect 4 0 1 0;
#X connect 5 0 20 0;
#X connect 6 0 22 0;
#X connect 7 0 24 0;
#X connect 8 0 24 0;
#X connect 9 0 15 0;
#X connect 10 0 11 0;
#X connect 11 0 2 0;
#X connect 11 1 0 0;
#X connect 12 0 24 0;
#X connect 13 0 24 0;
#X connect 14 0 5 1;
#X connect 14 0 3 1;
#X connect 15 0 3 0;
#X connect 16 0 17 0;
#X connect 17 0 14 0;
#X connect 18 0 15 0;
#X connect 19 0 18 0;
#X connect 20 0 21 0;
#X connect 21 0 15 0;
#X connect 22 0 24 0;
#X connect 23 0 6 0;
#X connect 24 0 5 0;
