#N canvas 303 49 897 643 10;
#X obj 38 75 pdgst;
#X msg 43 45 bang;
#X msg 131 38 start;
#X msg 128 72 stop;
#X obj 86 97 tgl 15 0 empty empty empty 17 7 0 10 -262144 -1 -1 1 1
;
#X msg 27 220 __gst connect;
#X obj 151 135 route info;
#X obj 151 205 route info;
#X obj 151 183 dvdemux;
#X obj 151 113 dv1394src;
#X obj 151 157 print INFO:0;
#X obj 151 227 print INFO:1;
#X obj 151 275 route info;
#X obj 151 355 route info;
#X obj 151 585 route info;
#X obj 151 253 dvdec;
#X obj 151 333 ffmpegcolorspace;
#X obj 151 563 glimagesink sync=false;
#X obj 151 297 print INFO:2;
#X obj 151 377 print INFO:3;
#X obj 151 607 print INFO:4;
#X msg 227 77 __gst connect;
#X msg 354 447 sync false;
#X msg 363 493 sync;
#X msg 352 415 sync \$1;
#X obj 349 387 tgl 15 0 empty empty empty 17 7 0 10 -262144 -1 -1 0
1;
#X floatatom 378 393 5 0 0 0 - - -;
#X obj 154 405 textoverlay;
#X obj 153 431 route info;
#X obj 153 454 print INFO:3.0;
#X obj 149 486 ffmpegcolorspace;
#X obj 149 506 route info;
#X obj 149 529 print INFO:3.1;
#X msg 333 322 text hallo;
#X obj 457 223 l2s;
#X msg 454 256 font-desc \$1;
#X symbolatom 489 233 0 0 0 0 - - -;
#X msg 456 184 Luxi Mono \$1;
#X floatatom 427 167 5 0 0 0 - - -;
#X obj 481 69 metro 50;
#X obj 484 42 tgl 15 0 empty empty empty 17 7 0 10 -262144 -1 -1 1
1;
#X obj 485 95 i;
#X obj 516 98 + 1;
#X obj 554 101 > 1e+06;
#X obj 556 130 select 1;
#X msg 561 151 0;
#X floatatom 472 124 5 0 0 0 - - -;
#X msg 340 135 text bla:\$1;
#X obj 476 529 nbx 5 72 -1e+06 1e+06 0 0 empty empty empty 0 -8 0 72
-262144 -1 -1 3279 256;
#X connect 1 0 0 0;
#X connect 2 0 0 0;
#X connect 3 0 0 0;
#X connect 4 0 0 0;
#X connect 5 0 9 0;
#X connect 5 0 8 0;
#X connect 5 0 15 0;
#X connect 5 0 16 0;
#X connect 5 0 17 0;
#X connect 6 0 10 0;
#X connect 6 1 8 0;
#X connect 7 0 11 0;
#X connect 7 1 15 0;
#X connect 8 0 7 0;
#X connect 9 0 6 0;
#X connect 12 0 18 0;
#X connect 12 1 16 0;
#X connect 13 0 19 0;
#X connect 13 1 27 0;
#X connect 14 0 20 0;
#X connect 15 0 12 0;
#X connect 16 0 13 0;
#X connect 17 0 14 0;
#X connect 21 0 9 0;
#X connect 22 0 17 0;
#X connect 23 0 17 0;
#X connect 24 0 17 0;
#X connect 25 0 24 0;
#X connect 26 0 24 0;
#X connect 27 0 28 0;
#X connect 28 0 29 0;
#X connect 28 1 30 0;
#X connect 30 0 31 0;
#X connect 31 0 32 0;
#X connect 31 1 17 0;
#X connect 33 0 27 0;
#X connect 34 0 35 0;
#X connect 34 0 36 0;
#X connect 35 0 27 0;
#X connect 37 0 34 0;
#X connect 38 0 37 0;
#X connect 39 0 41 0;
#X connect 40 0 39 0;
#X connect 41 0 42 0;
#X connect 41 0 46 0;
#X connect 41 0 48 0;
#X connect 42 0 43 0;
#X connect 42 0 41 1;
#X connect 43 0 44 0;
#X connect 44 0 45 0;
#X connect 45 0 41 0;
#X connect 46 0 47 0;
#X connect 47 0 27 0;
