#N canvas 0 168 621 643 10;
#X obj 38 75 pdgst;
#X msg 43 45 bang;
#X msg 131 38 start;
#X msg 128 72 stop;
#X obj 86 97 tgl 15 0 empty empty empty 17 7 0 10 -262144 -1 -1 0 1
;
#X obj 151 213 dv1394src;
#X obj 151 238 infoprint dv1394src;
#X msg 358 386 sync 0;
#X msg 369 540 sync;
#X floatatom 370 453 5 0 0 0 - - -;
#X floatatom 442 523 5 0 0 0 - - -;
#X msg 450 548 screen-height \$1;
#X msg 398 585 screen-height;
#X msg 362 505 screen-width;
#X msg 373 480 anti-aliasing \$1;
#X obj 420 452 tgl 15 0 empty empty empty 17 7 0 10 -262144 -1 -1 0
1;
#X msg 118 114 save /tmp/pdgst.xml;
#X obj 151 423 fakesink;
#X obj 151 448 infoprint sink;
#X obj 151 283 dvdemux;
#X obj 151 308 infoprint dvdemux;
#X connect 1 0 0 0;
#X connect 2 0 0 0;
#X connect 3 0 0 0;
#X connect 4 0 0 0;
#X connect 5 0 6 0;
#X connect 6 0 19 0;
#X connect 9 0 14 0;
#X connect 10 0 11 0;
#X connect 15 0 14 0;
#X connect 16 0 0 0;
#X connect 17 0 18 0;
#X connect 19 0 20 0;
#X connect 20 0 17 0;
