#N canvas 485 49 877 704 10;
#X obj 66 50 pdgst;
#X obj 66 30 tgl 15 0 empty empty empty 17 7 0 10 -262144 -1 -1 0 1
;
#X obj 202 264 videotestsrc;
#X obj 283 288 infoprint src;
#X obj 115 572 pix_texture;
#X obj 115 607 square 3;
#X msg 152 24 create \, 1;
#X msg 230 25 destroy;
#X obj 142 454 pix_gst2pix rgba;
#X obj 115 528 pix_gain;
#X floatatom 141 504 5 0 0 0 - - -;
#X obj 115 359 gemhead;
#X obj 202 380 ffmpegcolorspace;
#X msg 269 230 pattern;
#X msg 335 231 pattern \$1;
#X obj 202 333 videorate;
#X obj 251 482 infoprint gst2pix;
#X obj 335 209 hradio 15 1 0 15 empty empty empty 0 -8 0 10 -262144
-1 -1 0;
#X obj 152 47 gemwin 60;
#X msg 317 263 is-live 1;
#X msg 424 266 is-live;
#X msg 256 56 frame 10;
#X msg 394 369 max-buffers 1;
#X msg 397 400 drop 1;
#X msg 336 350 max-buffers \, drop;
#X text 83 126 generates a video (in gstreamer) \, and inserts that
into the Gem-renderchaing;
#X msg 316 445 gem_state 1;
#X connect 1 0 0 0;
#X connect 2 0 15 0;
#X connect 2 1 3 0;
#X connect 4 0 5 0;
#X connect 6 0 18 0;
#X connect 7 0 18 0;
#X connect 8 0 9 0;
#X connect 8 2 16 0;
#X connect 9 0 4 0;
#X connect 10 0 9 1;
#X connect 11 0 8 0;
#X connect 12 0 8 0;
#X connect 13 0 2 0;
#X connect 14 0 2 0;
#X connect 15 0 12 0;
#X connect 17 0 14 0;
#X connect 19 0 2 0;
#X connect 20 0 2 0;
#X connect 21 0 18 0;
#X connect 22 0 8 0;
#X connect 23 0 8 0;
#X connect 24 0 8 0;
#X connect 26 0 8 0;
