#N canvas 532 22 877 704 10;
#X obj 66 50 pdgst;
#X obj 66 30 tgl 15 0 empty empty empty 17 7 0 10 -262144 -1 -1 1 1
;
#X obj 232 134 videotestsrc;
#X obj 232 158 infoprint src;
#X obj 145 442 pix_texture;
#X obj 145 477 square 3;
#X msg 152 24 create \, 1;
#X msg 230 25 destroy;
#X obj 232 284 pix_gst2pix rgba;
#X obj 145 398 pix_gain;
#X floatatom 171 374 5 0 0 0 - - -;
#X obj 145 229 gemhead;
#X obj 232 250 ffmpegcolorspace;
#X msg 299 100 pattern;
#X msg 365 101 pattern \$1;
#X obj 232 203 videorate;
#X obj 341 312 infoprint gst2pix;
#X obj 365 79 hradio 15 1 0 15 empty empty empty 0 -8 0 10 -262144
-1 -1 8;
#X obj 160 47 gemwin 60;
#X connect 1 0 0 0;
#X connect 2 0 3 0;
#X connect 3 0 15 0;
#X connect 4 0 5 0;
#X connect 6 0 18 0;
#X connect 7 0 18 0;
#X connect 8 0 9 0;
#X connect 8 1 16 0;
#X connect 9 0 4 0;
#X connect 10 0 9 1;
#X connect 11 0 8 0;
#X connect 12 0 8 0;
#X connect 13 0 2 0;
#X connect 14 0 2 0;
#X connect 15 0 12 0;
#X connect 17 0 14 0;
