#N canvas 30 117 581 432 10;
#X obj 38 75 pdgst;
#X obj 37 54 tgl 15 0 empty empty empty 17 7 0 10 -262144 -1 -1 0 1
;
#X obj 151 193 filesrc;
#X obj 151 263 id3demux;
#X obj 151 333 fakesink;
#X msg 281 134 location /tmp/zexy.mp3;
#X msg 302 106 location;
#X obj 212 196 infoprint 0;
#X obj 212 266 infoprint 1;
#X obj 211 335 infoprint 2;
#X text 142 47 open an mp3 file and parse it for id3 tags;
#X connect 1 0 0 0;
#X connect 2 0 3 0;
#X connect 2 1 7 0;
#X connect 3 0 4 0;
#X connect 3 1 8 0;
#X connect 4 1 9 0;
#X connect 5 0 2 0;
#X connect 6 0 2 0;
