#N canvas 493 271 679 359 10;
#X obj 270 13 inlet;
#X obj 448 158 print info:\$1;
#X obj 214 156 print state:\$1;
#X floatatom 100 115 5 0 0 0 - - -;
#X msg 100 70 \$2;
#X obj 291 188 print property:\$1;
#X obj 270 33 t a a;
#X obj 213 133 route state property state_changed;
#X connect 0 0 6 0;
#X connect 4 0 3 0;
#X connect 6 0 7 0;
#X connect 7 0 2 0;
#X connect 7 0 4 0;
#X connect 7 1 5 0;
#X connect 7 2 4 0;
#X connect 7 3 1 0;
#X coords 0 -1 1 1 85 30 1 100 100;
