#N canvas 493 271 450 300 10;
#X obj 213 15 inlet;
#X obj 280 210 outlet;
#X obj 213 60 route info;
#X obj 213 117 print info:\$1;
#X obj 213 83 route state;
#X obj 318 92 print state:\$1;
#X floatatom 100 115 5 0 0 0 - - -;
#X msg 104 70 \$2;
#X connect 0 0 2 0;
#X connect 2 0 4 0;
#X connect 2 1 1 0;
#X connect 4 0 5 0;
#X connect 4 0 7 0;
#X connect 4 1 3 0;
#X connect 7 0 6 0;
#X coords 0 -1 1 1 85 30 1 100 100;
