#N canvas 496 259 679 359 10;
#X obj 213 93 inlet;
#X obj 414 158 print info:\$1;
#X obj 213 156 print state:\$1;
#X floatatom 100 115 5 0 0 0 - - -;
#X msg 100 70 \$2;
#X obj 280 188 print property:\$1;
#X obj 213 133 route state property state_changed;
#X text 38 28 this is a helper-abstraction for debugging purposes...connect
it to the 2nd outlet of any pdgst element.;
#X obj 213 113 t a;
#X connect 0 0 8 0;
#X connect 4 0 3 0;
#X connect 6 0 2 0;
#X connect 6 0 4 0;
#X connect 6 1 5 0;
#X connect 6 2 4 0;
#X connect 6 3 1 0;
#X connect 8 0 6 0;
#X coords 0 -1 1 1 85 30 1 100 100;
