#N canvas 493 271 679 359 10;
#X obj 213 15 inlet;
#X obj 288 270 outlet;
#X obj 354 133 print info:\$1;
#X obj 199 115 print state:\$1;
#X floatatom 100 115 5 0 0 0 - - -;
#X msg 104 70 \$2;
#X obj 168 113 tgl 15 0 \$0-tgl \$0-tgl_ empty 17 7 0 10 -262144 -1
-1 0 1;
#X obj 341 215 print \$1:;
#X obj 320 114 print property:\$1;
#X obj 213 60 route _info;
#X obj 341 191 spigot 1;
#X obj 270 33 t a a;
#X obj 213 83 route state property state_changed;
#X obj 369 50 inlet;
#X obj 450 35 t f f;
#X connect 0 0 11 0;
#X connect 5 0 4 0;
#X connect 6 0 10 1;
#X connect 9 0 12 0;
#X connect 9 1 1 0;
#X connect 10 0 7 0;
#X connect 11 0 9 0;
#X connect 11 1 10 0;
#X connect 12 0 3 0;
#X connect 12 0 5 0;
#X connect 12 1 8 0;
#X connect 12 2 5 0;
#X connect 12 3 2 0;
#X connect 13 0 14 0;
#X connect 14 0 10 1;
#X connect 14 1 6 0;
#X coords 0 -1 1 1 85 30 1 100 100;
