#N canvas 1611 127 795 643 10;
#X obj 38 75 pdgst;
#X msg 43 45 bang;
#X msg 131 38 start;
#X msg 128 72 stop;
#X obj 86 97 tgl 15 0 empty empty empty 17 7 0 10 -262144 -1 -1 0 1
;
#X obj 551 350 jackaudiosink;
#X obj 550 381 infoprint jacksink;
#X msg 604 424 sync \$1;
#X obj 670 429 tgl 15 0 empty empty empty 17 7 0 10 -262144 -1 -1 0
1;
#X obj 553 167 infoprint jacksrc;
#X obj 553 255 infoprint audioecho;
#X obj 553 233 audioecho @max-delay 1e+09;
#X msg 416 240 feedback \$1;
#X floatatom 428 196 5 0 0 0 - - -;
#X msg 410 325 delay \$1;
#X obj 409 296 * 1e+06;
#X floatatom 396 264 5 0 0 0 - - -;
#X msg 374 424 intensity \$1;
#X floatatom 374 386 5 0 0 0 - - -;
#X obj 554 136 audiotestsrc;
#X msg 379 104 volume \$1;
#X floatatom 370 71 5 0 0 0 - - -;
#X msg 543 77 is-live \$1;
#X obj 542 52 tgl 15 0 empty empty empty 17 7 0 10 -262144 -1 -1 1
1;
#X msg 654 311 server default;
#X msg 264 307 buffer-time;
#X msg 254 364 \$1;
#X symbolatom 206 336 0 0 0 0 - - -;
#X msg 205 303 bang;
#X connect 1 0 0 0;
#X connect 2 0 0 0;
#X connect 3 0 0 0;
#X connect 4 0 0 0;
#X connect 5 0 6 0;
#X connect 7 0 5 0;
#X connect 8 0 7 0;
#X connect 9 0 11 0;
#X connect 10 0 5 0;
#X connect 11 0 10 0;
#X connect 12 0 11 0;
#X connect 13 0 12 0;
#X connect 14 0 11 0;
#X connect 15 0 14 0;
#X connect 16 0 15 0;
#X connect 17 0 11 0;
#X connect 18 0 17 0;
#X connect 19 0 9 0;
#X connect 20 0 19 0;
#X connect 21 0 20 0;
#X connect 22 0 19 0;
#X connect 23 0 22 0;
#X connect 24 0 5 0;
#X connect 25 0 5 0;
#X connect 26 0 5 0;
#X connect 27 0 26 0;
#X connect 28 0 27 0;
