#N canvas 246 121 687 440 10;
#X obj 38 75 pdgst;
#X obj 38 45 tgl 15 0 empty empty empty 17 7 0 10 -262144 -1 -1 0 1
;
#X obj 283 390 jackaudiosink;
#X obj 461 390 infoprint jacksink;
#X msg 384 374 sync \$1;
#X obj 436 375 tgl 15 0 empty empty empty 17 7 0 10 -262144 -1 -1 0
1;
#X obj 383 196 infoprint jacksrc;
#X obj 453 293 infoprint audioecho;
#X obj 283 293 audioecho @max-delay 1e+09;
#X msg 306 260 feedback \$1;
#X floatatom 306 240 5 0 0 0 - - -;
#X msg 384 272 delay \$1;
#X obj 384 253 * 1e+06;
#X floatatom 384 235 5 0 0 0 - - -;
#X msg 464 272 intensity \$1;
#X floatatom 464 254 5 0 0 0 - - -;
#X obj 283 196 audiotestsrc;
#X msg 299 174 volume \$1;
#X floatatom 299 154 5 0 0 0 - - -;
#X msg 283 127 is-live \$1;
#X obj 283 107 tgl 15 0 empty empty empty 17 7 0 10 -262144 -1 -1 0
1;
#X msg 384 351 server default;
#X msg 391 329 buffer-time;
#X text 208 68 apply some audio-effect and send it to jack;
#X connect 1 0 0 0;
#X connect 2 1 3 0;
#X connect 4 0 2 0;
#X connect 5 0 4 0;
#X connect 8 0 2 0;
#X connect 8 1 7 0;
#X connect 9 0 8 0;
#X connect 10 0 9 0;
#X connect 11 0 8 0;
#X connect 12 0 11 0;
#X connect 13 0 12 0;
#X connect 14 0 8 0;
#X connect 15 0 14 0;
#X connect 16 0 8 0;
#X connect 16 1 6 0;
#X connect 17 0 16 0;
#X connect 18 0 17 0;
#X connect 19 0 16 0;
#X connect 20 0 19 0;
#X connect 21 0 2 0;
#X connect 22 0 2 0;
