#N canvas 101 19 473 643 10;
#X obj 38 75 pdgst;
#X msg 43 45 bang;
#X msg 131 38 start;
#X msg 128 72 stop;
#X obj 86 97 tgl 15 0 empty empty empty 17 7 0 10 -262144 -1 -1 0 1
;
#X msg 101 223 __gst connect;
#X obj 151 285 route info;
#X obj 151 355 route info;
#X obj 151 333 dvdemux;
#X obj 151 263 dv1394src;
#X obj 151 307 print INFO:0;
#X obj 151 377 print INFO:1;
#X obj 151 425 route info;
#X obj 151 505 route info;
#X obj 151 403 dvdec;
#X obj 151 447 print INFO:2;
#X obj 151 527 print INFO:3;
#X obj 151 483 fakesink;
#X connect 1 0 0 0;
#X connect 2 0 0 0;
#X connect 3 0 0 0;
#X connect 4 0 0 0;
#X connect 5 0 9 0;
#X connect 5 0 8 0;
#X connect 5 0 14 0;
#X connect 5 0 17 0;
#X connect 6 0 10 0;
#X connect 6 1 8 0;
#X connect 7 0 11 0;
#X connect 7 1 14 0;
#X connect 8 0 7 0;
#X connect 9 0 6 0;
#X connect 12 0 15 0;
#X connect 12 1 17 0;
#X connect 13 0 16 0;
#X connect 14 0 12 0;
#X connect 17 0 13 0;
