#N canvas 101 19 473 643 10;
#X obj 38 75 pdgst;
#X msg 43 45 bang;
#X msg 131 38 start;
#X msg 128 72 stop;
#X obj 86 97 tgl 15 0 empty empty empty 17 7 0 10 -262144 -1 -1 1 1
;
#X obj 62 260 dvdemux;
#X obj 62 190 dv1394src;
#X obj 62 330 dvdec;
#X obj 62 410 ffmpegcolorspace;
#X obj 62 488 autovideosink sync=false;
#X obj 62 217 infoprint 0;
#X obj 62 283 infoprint 1;
#X obj 62 352 infoprint 2;
#X obj 62 432 infoprint 3;
#X obj 62 513 infoprint 4;
#X msg 247 440 sync;
#X obj 259 284 t a;
#X msg 281 255 sync;
#X msg 280 217 name;
#X connect 1 0 0 0;
#X connect 2 0 0 0;
#X connect 3 0 0 0;
#X connect 4 0 0 0;
#X connect 5 0 11 0;
#X connect 6 0 10 0;
#X connect 7 0 12 0;
#X connect 8 0 13 0;
#X connect 9 0 14 0;
#X connect 10 0 5 0;
#X connect 11 0 7 0;
#X connect 12 0 8 0;
#X connect 13 0 9 0;
#X connect 15 0 9 0;
#X connect 16 0 6 0;
#X connect 16 0 5 0;
#X connect 16 0 7 0;
#X connect 16 0 8 0;
#X connect 16 0 9 0;
#X connect 17 0 16 0;
#X connect 18 0 16 0;
