#N canvas 584 39 473 643 10;
#X obj 38 75 pdgst;
#X msg 43 45 bang;
#X msg 131 38 start;
#X msg 128 72 stop;
#X obj 86 97 tgl 15 0 empty empty empty 17 7 0 10 -262144 -1 -1 0 1
;
#X obj 151 263 videotestsrc;
#X msg 162 223 __gst connect;
#X obj 172 285 route info;
#X obj 162 323 print INFO:v;
#X obj 255 418 route info;
#X obj 245 456 print INFO:g;
#X obj 257 391 autovideosink;
#X connect 1 0 0 0;
#X connect 2 0 0 0;
#X connect 3 0 0 0;
#X connect 4 0 0 0;
#X connect 5 0 7 0;
#X connect 6 0 5 0;
#X connect 7 0 8 0;
#X connect 7 1 11 0;
#X connect 9 0 10 0;
#X connect 11 0 9 0;
