#N canvas 1683 117 877 676 10;
#X obj 66 50 pdgst;
#X obj 66 30 tgl 15 0 empty empty empty 17 7 0 10 -262144 -1 -1 1 1
;
#X obj 195 115 gemwin;
#X msg 280 115 destroy;
#X obj 329 465 typefind;
#X obj 329 489 ffmpegcolorspace;
#X obj 178 399 pix_yuv;
#X obj 178 264 gemhead -1;
#X obj 178 290 t a b;
#X obj 602 43 gemhead;
#X obj 602 156 rotateXYZ;
#X floatatom 659 124 5 0 0 0 - - -;
#X obj 602 181 teapot;
#X obj 744 95 gemhead;
#X obj 744 117 world_light;
#X msg 216 85 lighting \$1;
#X obj 216 66 tgl 15 0 empty empty empty 17 7 0 10 -262144 -1 -1 1
1;
#X obj 602 85 color 1 0 0;
#X obj 178 328 pix_snap 0 0 320 240;
#X obj 178 436 pix_pix2gst yuv 128 64;
#X msg 195 38 dimen 320 240 \, create \, 1;
#X obj 178 379 pix_resize 128 64;
#X obj 329 512 aasink;
#X connect 1 0 0 0;
#X connect 3 0 2 0;
#X connect 4 0 5 0;
#X connect 5 0 22 0;
#X connect 6 0 19 0;
#X connect 7 0 8 0;
#X connect 8 0 18 0;
#X connect 8 1 18 0;
#X connect 9 0 17 0;
#X connect 10 0 12 0;
#X connect 11 0 10 2;
#X connect 11 0 10 3;
#X connect 11 0 10 1;
#X connect 13 0 14 0;
#X connect 15 0 2 0;
#X connect 16 0 15 0;
#X connect 17 0 10 0;
#X connect 18 0 21 0;
#X connect 19 1 4 0;
#X connect 20 0 2 0;
#X connect 21 0 6 0;
