#N canvas 1852 0 708 643 10;
#X obj 38 75 pdgst;
#X msg 43 45 bang;
#X obj 96 55 tgl 15 0 empty empty empty 17 7 0 10 -262144 -1 -1 1 1
;
#X obj 163 235 infoprint videotestsrc;
#X obj 151 429 infoprint glimagesink;
#X symbolatom 314 141 10 0 0 0 - - -;
#X obj 29 119 print pdgst;
#X obj 496 128 r __gst_source;
#X msg 313 391 sync \$1;
#X obj 309 371 tgl 15 0 empty empty empty 17 7 0 10 -262144 -1 -1 0
1;
#X obj 139 317 infoprint tee;
#X obj 507 201 r __gst;
#X obj 508 228 print __gst:xxxxxxxxxxx;
#X obj 492 95 s __gst;
#X msg 492 68 __gst deregister;
#X obj 496 155 print __gst_source:xxxxxxxxxx;
#X msg 102 25 1;
#X msg 119 47 0;
#X msg 42 352 __gst deregister;
#X obj 33 384 t a a;
#X obj 181 63 i;
#X obj 218 65 + 1;
#X floatatom 136 78 5 0 0 0 - - -;
#X msg 192 36 bang;
#X msg 125 95 save /tmp/xmltest\$1.gst;
#X msg 26 474 __gst register;
#X msg 275 325 signal-handoffs \$1;
#X obj 271 301 tgl 15 0 empty empty empty 17 7 0 10 -262144 -1 -1 0
1;
#X obj 159 195 playbin;
#X msg 319 168 uri file://\$1;
#X obj 321 116 openpanel;
#X msg 326 93 symbol /tmp;
#X msg 352 219 uri;
#X msg 418 411 name;
#X msg 345 272 video-sink aasink1;
#X msg 341 249 video-sink;
#X msg 495 303 _seek \$1;
#X floatatom 499 273 5 0 0 0 - - -;
#X msg 401 114 bang;
#X connect 0 0 6 0;
#X connect 1 0 0 0;
#X connect 2 0 0 0;
#X connect 3 0 10 0;
#X connect 5 0 29 0;
#X connect 7 0 15 0;
#X connect 9 0 8 0;
#X connect 11 0 12 0;
#X connect 14 0 13 0;
#X connect 16 0 2 0;
#X connect 17 0 2 0;
#X connect 18 0 19 0;
#X connect 19 0 28 0;
#X connect 20 0 21 0;
#X connect 20 0 22 0;
#X connect 21 0 20 1;
#X connect 22 0 24 0;
#X connect 23 0 20 0;
#X connect 24 0 0 0;
#X connect 25 0 19 0;
#X connect 27 0 26 0;
#X connect 28 0 3 0;
#X connect 29 0 28 0;
#X connect 30 0 5 0;
#X connect 31 0 30 0;
#X connect 32 0 28 0;
#X connect 34 0 28 0;
#X connect 35 0 28 0;
#X connect 36 0 28 0;
#X connect 37 0 36 0;
#X connect 38 0 5 0;
