#N canvas 0 168 621 643 10;
#X obj 38 75 pdgst;
#X msg 43 45 bang;
#X msg 131 38 start;
#X msg 128 72 stop;
#X obj 86 97 tgl 15 0 empty empty empty 17 7 0 10 -262144 -1 -1 0 1
;
#X obj 142 262 infoprint glimagesink;
#X obj 142 195 infoprint ffmpegcolorspace;
#X obj 144 239 cacasink @sync 0;
#X obj 143 170 videotestsrc;
#X connect 1 0 0 0;
#X connect 2 0 0 0;
#X connect 3 0 0 0;
#X connect 4 0 0 0;
#X connect 6 0 7 0;
#X connect 7 0 5 0;
#X connect 8 0 6 0;
