#N canvas 561 126 697 480 10;
#X declare -lib pdgst -lib Gem;
#X obj 112 42 cnv 15 100 60 empty empty 1:startGem 10 12 0 14 -233017
-66577 0;
#N canvas 1 77 671 312 gemwin 0;
#X obj 168 103 tgl 15 0 \$0-gemwin \$0-gemwin empty 17 7 0 10 -262144
-1 -1 1 1;
#X obj 248 100 r \$0-gemwin;
#X obj 248 122 select 1 0;
#X obj 248 166 gemwin;
#X obj 404 88 inlet;
#X obj 467 75 loadbang;
#X msg 248 144 create \, 1;
#X msg 310 166 0 \, destroy;
#X msg 467 97 reset \, dimen 640 480 \, lighting 1;
#X connect 1 0 2 0;
#X connect 2 0 6 0;
#X connect 2 1 7 0;
#X connect 4 0 3 0;
#X connect 5 0 8 0;
#X connect 6 0 3 0;
#X connect 7 0 3 0;
#X connect 8 0 3 0;
#X coords 0 -1 1 1 85 25 1 100 100;
#X restore 121 71 pd gemwin;
#X obj 236 42 cnv 15 100 60 empty empty 2:startGSt 10 12 0 14 -203904
-66577 0;
#X obj 257 81 pdgst;
#X obj 257 62 tgl 15 0 empty empty empty 17 7 0 10 -262144 -1 -1 1
1;
#X obj -7 454 declare -lib pdgst -lib Gem;
#X obj 113 118 cnv 15 360 120 empty empty empty 20 12 0 14 -233017
-66577 0;
#X obj 122 213 pix_yuv;
#X obj 122 131 gemhead -1;
#X obj 122 157 t a b;
#X obj 262 127 gemhead;
#X obj 262 192 rotateXYZ;
#X floatatom 345 176 5 0 0 0 - - -;
#X obj 262 214 teapot;
#X obj 386 123 gemhead;
#X obj 386 145 world_light;
#X obj 262 148 color 1 0 0;
#X obj 72 287 loadbang;
#X obj 262 170 translateXYZ;
#X obj 122 185 pix_snap 0 0 640 480;
#X obj 113 238 cnv 15 200 30 empty empty empty 20 12 0 14 -4034 -66577
0;
#X obj 122 244 pix_pix2gst yuv 640 480 20;
#X obj 188 267 cnv 15 150 160 empty empty empty 10 12 0 14 -203904
-66577 0;
#X obj 198 360 flvmux;
#X obj 198 402 rtmpsink;
#X obj 198 276 ffmpegcolorspace;
#X obj 198 340 ffenc_flv;
#X obj 198 297 videorate;
#X obj 198 319 timeoverlay;
#X msg 9 209 do-timestamp 1;
#X obj 9 190 loadbang;
#X msg 72 306 bitrate 500000;
#X obj 279 342 loadbang;
#X text -10 9 stream to justin.tv / ustream and alike;
#X msg 280 362 location rtmp://live.justin.tv/app/live_YOURKEY;
#X connect 4 0 3 0;
#X connect 7 0 21 0;
#X connect 8 0 9 0;
#X connect 9 0 19 0;
#X connect 9 1 19 0;
#X connect 10 0 16 0;
#X connect 11 0 13 0;
#X connect 12 0 11 2;
#X connect 12 0 11 3;
#X connect 12 0 11 1;
#X connect 14 0 15 0;
#X connect 16 0 18 0;
#X connect 17 0 31 0;
#X connect 18 0 11 0;
#X connect 19 0 7 0;
#X connect 21 1 25 0;
#X connect 23 0 24 0;
#X connect 25 0 27 0;
#X connect 26 0 23 0;
#X connect 27 0 28 0;
#X connect 28 0 26 0;
#X connect 29 0 21 0;
#X connect 30 0 29 0;
#X connect 31 0 26 0;
#X connect 32 0 34 0;
#X connect 34 0 24 0;
