#N canvas 731 205 654 427 10;
#X obj 19 31 pdgst;
#X obj 19 11 tgl 15 0 empty empty empty 17 7 0 10 -262144 -1 -1 0 1
;
#X obj 416 93 gemwin;
#X msg 515 63 destroy;
#X obj 108 147 pix_yuv;
#X obj 108 65 gemhead -1;
#X obj 108 91 t a b;
#X obj 416 130 gemhead;
#X obj 416 225 rotateXYZ;
#X floatatom 456 201 5 0 0 0 - - -;
#X obj 416 250 teapot;
#X obj 510 133 gemhead;
#X obj 510 155 world_light;
#X msg 437 63 lighting \$1;
#X obj 437 44 tgl 15 0 empty empty empty 17 7 0 10 -262144 -1 -1 1
1;
#X obj 416 154 color 1 0 0;
#X obj 184 286 flvmux;
#X obj 184 310 rtmpsink;
#X obj 91 215 loadbang;
#X obj 416 179 translateXYZ;
#X obj 108 119 pix_snap 0 0 640 480;
#X obj 184 198 ffmpegcolorspace;
#X msg 91 238 bitrate 999999;
#X obj 184 262 ffenc_flv;
#X obj 184 219 videorate;
#X obj 184 239 timeoverlay text="streamtime";
#X msg 416 16 dimen 640 480 \, create \, 1;
#X msg 100 263 streamable 1;
#X obj 108 174 pix_pix2gst yuv 640 480 20;
#X msg 235 286 location rtmp://live.justin.tv/app/live_YOURAPIKEY;
#X connect 1 0 0 0;
#X connect 3 0 2 0;
#X connect 4 0 28 0;
#X connect 5 0 6 0;
#X connect 6 0 20 0;
#X connect 6 1 20 0;
#X connect 7 0 15 0;
#X connect 8 0 10 0;
#X connect 9 0 8 2;
#X connect 9 0 8 3;
#X connect 9 0 8 1;
#X connect 11 0 12 0;
#X connect 13 0 2 0;
#X connect 14 0 13 0;
#X connect 15 0 19 0;
#X connect 16 0 17 0;
#X connect 18 0 29 0;
#X connect 18 0 22 0;
#X connect 18 0 27 0;
#X connect 19 0 8 0;
#X connect 20 0 4 0;
#X connect 21 0 24 0;
#X connect 22 0 23 0;
#X connect 23 0 16 0;
#X connect 24 0 25 0;
#X connect 25 0 23 0;
#X connect 26 0 2 0;
#X connect 27 0 16 0;
#X connect 28 1 21 0;
#X connect 29 0 17 0;
