#N canvas 0 0 653 526 10;
#X obj 38 75 pdgst;
#X msg 43 45 bang;
#X msg 131 38 start;
#X msg 128 72 stop;
#X obj 86 97 tgl 15 0 empty empty empty 17 7 0 10 -262144 -1 -1 1 1
;
#X obj 140 422 infoprint glimagesink;
#X obj 143 170 videotestsrc;
#X msg 117 106 1;
#X obj 142 399 xvimagesink @sync 0;
#X obj 141 327 textoverlay @shaded-background 1;
#X obj 142 351 infoprint textoverlay;
#X obj 142 291 infoprint timeoverlay;
#X obj 140 267 timeoverlay;
#X obj 431 214 infoprint filesource;
#X obj 426 258 subparse;
#X obj 426 281 infoprint subparse;
#X obj 142 195 infoprint videotestsrc;
#X obj 431 191 filesrc @location pd/test.srt;
#X connect 1 0 0 0;
#X connect 2 0 0 0;
#X connect 3 0 0 0;
#X connect 4 0 0 0;
#X connect 6 0 16 0;
#X connect 7 0 4 0;
#X connect 8 0 5 0;
#X connect 9 0 10 0;
#X connect 10 0 8 0;
#X connect 11 0 9 0;
#X connect 12 0 11 0;
#X connect 13 0 14 0;
#X connect 14 0 15 0;
#X connect 15 0 9 0;
#X connect 16 0 12 0;
#X connect 17 0 13 0;
