#N canvas 4 49 653 526 10;
#X obj 38 75 pdgst;
#X obj 38 53 tgl 15 0 empty empty empty 17 7 0 10 -262144 -1 -1 0 1
;
#X obj 310 414 infoprint glimagesink;
#X obj 93 170 videotestsrc;
#X obj 93 399 xvimagesink @sync 0;
#X obj 93 321 textoverlay @shaded-background 1;
#X obj 302 336 infoprint textoverlay;
#X obj 172 267 infoprint timeoverlay;
#X obj 93 267 timeoverlay;
#X obj 521 206 infoprint filesource;
#X obj 331 288 subparse;
#X obj 401 303 infoprint subparse;
#X obj 172 185 infoprint videotestsrc;
#X obj 331 191 filesrc @location pd/test.srt;
#X text 225 68 read a subtitles file and overlay the text over a testvideo
;
#X connect 1 0 0 0;
#X connect 3 0 8 0;
#X connect 3 1 12 0;
#X connect 4 1 2 0;
#X connect 5 0 4 0;
#X connect 5 1 6 0;
#X connect 8 0 5 0;
#X connect 8 1 7 0;
#X connect 10 0 5 0;
#X connect 10 1 11 0;
#X connect 13 0 10 0;
#X connect 13 1 9 0;
