#N canvas 288 91 450 643 10;
#X obj 151 213 videotestsrc;
#X obj 34 261 glimagesink;
#X obj 38 75 pdgst;
#X msg 184 183 pattern;
#X msg 317 196 _gst;
#X msg 178 80 num-buffers;
#X msg 184 115 typefind;
#X text 251 117 bool;
#X text 246 181 enum;
#X text 273 80 int;
#X msg 179 36 name;
#X text 221 38 string;
#X msg 183 59 blocksize;
#X text 262 61 ulong;
#X msg 187 139 is-live;
#X obj 292 289 route info;
#X obj 292 310 route property;
#X obj 286 341 print videotestsrc;
#X obj 37 298 route info;
#X obj 37 319 route property;
#X obj 27 396 print glimagesink;
#X msg 34 231 display;
#X msg 31 200 sync;
#X obj 35 345 route display;
#X obj 152 359 print YY;
#X obj 192 549 sfsink;
#X msg 193 511 minor-type;
#X msg 296 538 minor-type 8;
#X msg 261 232 butter;
#X obj 78 479 audio/x-raw-float channels=10;
#X msg 43 45 bang;
#X obj 305 415 r __gst;
#X obj 308 437 print xxx;
#X obj 116 297 print xxx0;
#X obj 371 288 print xxx1;
#X obj 192 572 print xx2;
#X connect 0 0 15 0;
#X connect 1 0 18 0;
#X connect 3 0 0 0;
#X connect 4 0 0 0;
#X connect 5 0 0 0;
#X connect 6 0 0 0;
#X connect 10 0 0 0;
#X connect 12 0 0 0;
#X connect 14 0 0 0;
#X connect 15 0 16 0;
#X connect 15 1 34 0;
#X connect 16 0 17 0;
#X connect 16 1 34 0;
#X connect 18 0 19 0;
#X connect 18 1 33 0;
#X connect 19 0 23 0;
#X connect 19 1 33 0;
#X connect 21 0 1 0;
#X connect 22 0 1 0;
#X connect 23 0 24 0;
#X connect 23 1 20 0;
#X connect 25 0 35 0;
#X connect 26 0 25 0;
#X connect 27 0 25 0;
#X connect 28 0 0 0;
#X connect 30 0 2 0;
#X connect 31 0 32 0;
